<?xml version="1.0" encoding="UTF-8" standalone="no"?>
<!-- Created with Inkscape (http://www.inkscape.org/) -->

<svg
   xmlns:dc="http://purl.org/dc/elements/1.1/"
   xmlns:cc="http://creativecommons.org/ns#"
   xmlns:rdf="http://www.w3.org/1999/02/22-rdf-syntax-ns#"
   xmlns:svg="http://www.w3.org/2000/svg"
   xmlns="http://www.w3.org/2000/svg"
   xmlns:sodipodi="http://sodipodi.sourceforge.net/DTD/sodipodi-0.dtd"
   xmlns:inkscape="http://www.inkscape.org/namespaces/inkscape"
   sodipodi:docname="Rule Segment - Wave - 40px.svg"
   inkscape:version="0.48.3.1 r9886"
   version="1.1"
   id="svg2"
   height="3"
   width="40">
  <sodipodi:namedview
     id="base"
     pagecolor="#ffffff"
     bordercolor="#666666"
     borderopacity="1.0"
     inkscape:pageopacity="0.0"
     inkscape:pageshadow="2"
     inkscape:zoom="22.627417"
     inkscape:cx="12.578385"
     inkscape:cy="7.8933341"
     inkscape:document-units="px"
     inkscape:current-layer="layer1"
     showgrid="false"
     inkscape:snap-smooth-nodes="false"
     inkscape:object-nodes="true"
     inkscape:window-width="1450"
     inkscape:window-height="876"
     inkscape:window-x="150"
     inkscape:window-y="0"
     inkscape:window-maximized="1">
    <inkscape:grid
       snapvisiblegridlinesonly="true"
       enabled="true"
       visible="true"
       empspacing="5"
       id="grid3753"
       type="xygrid" />
  </sodipodi:namedview>
  <defs
     id="defs4" />
  <metadata
     id="metadata7">
    <rdf:RDF>
      <cc:Work
         rdf:about="">
        <dc:format>image/svg+xml</dc:format>
        <dc:type
           rdf:resource="http://purl.org/dc/dcmitype/StillImage" />
        <dc:title></dc:title>
      </cc:Work>
    </rdf:RDF>
  </metadata>
  <g
     transform="translate(0,-1049.3622)"
     id="layer1"
     inkscape:groupmode="layer"
     inkscape:label="Layer 1">
    <path
       id="path3849"
       title="sin(x)"
       d="M -1.046875,1051.7156 0,1050.8619 c 0.34188034,-0.2686 0.68376068,-0.5352 1.025641,-0.7212 0.3418804,-0.186 0.6837607,-0.2886 1.0256411,-0.2779 0.3418803,0.014 0.6837606,0.1351 1.025641,0.336 0.3418803,0.2009 0.6837607,0.4758 1.025641,0.7434 0.3418803,0.2676 0.6837607,0.5242 1.025641,0.694 0.3418804,0.17 0.6837607,0.2508 1.0256411,0.2181 0.3418803,-0.032 0.6837606,-0.1773 1.025641,-0.3918 0.3418803,-0.2147 0.6837607,-0.4961 1.025641,-0.761 0.3418803,-0.2651 0.6837607,-0.51 1.025641,-0.6626 0.3418804,-0.15 0.6837607,-0.21 1.0256408,-0.1567 0.341881,0.054 0.683761,0.2184 1.025641,0.4452 0.341881,0.2269 0.683761,0.5129 1.025641,0.7737 0.341881,0.2606 0.683761,0.4921 1.025641,0.6266 0.341881,0.1351 0.683761,0.169 1.025641,0.095 0.341881,-0.075 0.683761,-0.258 1.025641,-0.4956 0.341881,-0.2377 0.683761,-0.5267 1.025641,-0.7814 0.341881,-0.2546 0.683761,-0.4714 1.025641,-0.5867 0.341881,-0.1155 0.683761,-0.1266 1.025641,-0.032 0.341881,0.095 0.683761,0.296 1.025641,0.543 0.341881,0.247 0.683761,0.5367 1.025642,0.7838 0.34188,0.247 0.68376,0.4476 1.025641,0.543 0.34188,0.095 0.68376,0.083 1.025641,-0.032 0.34188,-0.1156 0.68376,-0.3321 1.025641,-0.5867 0.34188,-0.2547 0.68376,-0.5435 1.025641,-0.7813 0.34188,-0.2378 0.68376,-0.4209 1.025641,-0.4957 0.34188,-0.075 0.68376,-0.039 1.025641,0.095 0.34188,0.1337 0.68376,0.366 1.025641,0.6266 0.34188,0.2607 0.68376,0.5466 1.025641,0.7737 0.34188,0.2269 0.68376,0.3914 1.025641,0.4452 0.34188,0.054 0.68376,-0.014 1.025641,-0.1567 0.34188,-0.1525 0.68376,-0.3975 1.025641,-0.6626 0.34188,-0.2648 0.68376,-0.5463 1.025641,-0.761 0.34188,-0.2147 0.683761,-0.3592 1.025641,-0.3918 0.34188,-0.033 0.683761,0.049 1.025641,0.2179 0.34188,0.1699 0.683761,0.4266 1.025641,0.6942 0.34188,0.2676 0.683761,0.5424 1.025641,0.7433 0.34188,0.2012 0.683761,0.3254 1.025641,0.3361 0.34188,0.014 0.683761,-0.092 1.025641,-0.2779 0.34188,-0.1859 0.683761,-0.4526 1.025641,-0.721 l 0.890625,-0.7811"
       style="fill:none;stroke:#000000;stroke-width:0.89999998;stroke-miterlimit:4;stroke-dasharray:none"
       inkscape:connector-curvature="0"
       sodipodi:nodetypes="csccscssccssscccscccsccccccccccccscccsccc" />
  </g>
</svg>
